<svg width="104" height="20" viewBox="0 0 104 20" fill="none" xmlns="http://www.w3.org/2000/svg">
    <path fill-rule="evenodd" clip-rule="evenodd" d="M0 0.0294189H6.26251V4.35535H8.34637V2.19329H10.4302V0.0294189H16.6909V6.53195H14.6089V8.69582H12.525V10.8597H14.6089V13.0218H16.6909V19.5261H10.4302V17.3622H8.34637V15.1984H6.26251V19.5261H0V0.0294189Z" fill="#00E701"/>
    <path fill-rule="evenodd" clip-rule="evenodd" d="M41.7751 0.0294189H48.0376V4.35535H50.1215V2.19329H52.2054V0.0294189H58.4661V6.53195H56.384V8.69582H54.3002V10.8597H56.384V13.0218H58.4661V19.5261H52.2054V17.3622H50.1215V15.1984H48.0376V19.5261H41.7751V0.0294189Z" fill="#00E701"/>
    <path d="M25.0608 0.0294189H18.7983V19.5261H25.0608V0.0294189Z" fill="#00E701"/>
    <path fill-rule="evenodd" clip-rule="evenodd" d="M29.2391 0.0303528V2.19423H27.1553V17.3504H29.2391V19.5143H39.6803V13.0118H33.4178V6.50925H39.6803V0.00671387H29.2391V0.0303528Z" fill="#00E701"/>
    <path d="M72.9806 19.5249H70.3421V18.4357C69.8329 18.8848 69.3183 19.2267 68.8001 19.4631C68.2819 19.6994 67.6909 19.8176 67.0272 19.8176C66.2616 19.8176 65.5525 19.6649 64.8979 19.3594C64.2432 19.0539 63.6795 18.6266 63.2086 18.0774C62.7376 17.5283 62.3667 16.8719 62.0994 16.1081C61.8321 15.3426 61.6975 14.5061 61.6975 13.597C61.6975 12.6878 61.8321 11.8604 62.0994 11.0912C62.3667 10.3221 62.7376 9.6638 63.2086 9.11465C63.6795 8.56549 64.2432 8.13636 64.8979 7.82723C65.5525 7.51629 66.2616 7.36172 67.0272 7.36172C67.6909 7.36172 68.28 7.47446 68.8001 7.69994C69.3183 7.92542 69.8329 8.26364 70.3421 8.71278V5.25786H68.0473V2.88669H72.9806V19.5249ZM70.3403 10.8057C70.0257 10.4566 69.6202 10.1911 69.122 10.0075C68.6255 9.82563 68.1509 9.73289 67.7 9.73289C66.7053 9.73289 65.8962 10.0911 65.2706 10.8057C64.6451 11.5204 64.3342 12.4532 64.3342 13.6024C64.3342 14.7516 64.6469 15.679 65.2706 16.3864C65.8962 17.0937 66.7053 17.4465 67.7 17.4465C68.1509 17.4465 68.6237 17.3556 69.122 17.1719C69.6184 16.9882 70.0257 16.7228 70.3403 16.3736V10.8057Z" fill="black"/>
    <path d="M76.9758 14.5936C77.1031 15.4137 77.4923 16.0937 78.1432 16.6356C78.7942 17.1775 79.667 17.4484 80.7635 17.4484C81.6218 17.4484 82.3673 17.3139 83.0001 17.0466C83.6329 16.7793 84.1803 16.4247 84.6385 15.9828L85.9896 17.8412C85.224 18.6013 84.4148 19.1213 83.5602 19.4014C82.7056 19.6796 81.7727 19.8196 80.7617 19.8196C79.8434 19.8196 78.9888 19.6668 78.1996 19.3614C77.4104 19.0559 76.7249 18.6285 76.1467 18.0794C75.5684 17.5321 75.1156 16.8793 74.7883 16.1228C74.461 15.3664 74.2974 14.5245 74.2974 13.5989C74.2974 12.6734 74.4483 11.8678 74.7501 11.1059C75.052 10.3458 75.4775 9.68575 76.0248 9.12933C76.5722 8.5729 77.2304 8.13831 77.9941 7.82918C78.7597 7.51824 79.6052 7.36368 80.5308 7.36368C81.4563 7.36368 82.3619 7.52733 83.1438 7.85464C83.9257 8.18195 84.5949 8.65655 85.1513 9.27662C85.7077 9.89668 86.1441 10.6549 86.4587 11.5532C86.7733 12.4497 86.9297 13.4643 86.9297 14.5936H76.9722H76.9758ZM83.9493 12.2733C83.813 11.5078 83.4184 10.895 82.7637 10.4313C82.1091 9.9676 81.3654 9.73667 80.5326 9.73667C79.6998 9.73667 78.9524 9.9676 78.2887 10.4313C77.625 10.895 77.2268 11.5078 77.0904 12.2733H83.9493Z" fill="black"/>
    <path d="M98.5291 7.64374L94.1432 19.5269H91.0319L86.646 7.64374H89.4645L92.6012 16.632L95.7124 7.64374H98.5309H98.5291Z" fill="black"/>
    <path fill-rule="evenodd" clip-rule="evenodd" d="M102.695 17.3652V19.5272H98.5288V15.2013H100.613V17.3652H102.695Z" fill="#00E701"/>
</svg>
